<mxfile host="Electron" modified="2024-04-04T10:09:18.813Z" agent="Mozilla/5.0 (Windows NT 10.0; Win64; x64) AppleWebKit/537.36 (KHTML, like Gecko) draw.io/24.1.0 Chrome/120.0.6099.109 Electron/28.1.0 Safari/537.36" etag="kuhNKIC4mcjH5Zgb-fBM" version="24.1.0" type="device">
  <diagram id="C5RBs43oDa-KdzZeNtuy" name="Page-1">
    <mxGraphModel dx="2555" dy="2166" grid="1" gridSize="10" guides="1" tooltips="1" connect="1" arrows="1" fold="1" page="1" pageScale="1" pageWidth="827" pageHeight="1169" math="0" shadow="0">
      <root>
        <mxCell id="WIyWlLk6GJQsqaUBKTNV-0" />
        <mxCell id="WIyWlLk6GJQsqaUBKTNV-1" parent="WIyWlLk6GJQsqaUBKTNV-0" />
        <mxCell id="h5Efu_G0mSg4I1NGirqq-12" value="«enum»&lt;br&gt;&lt;b&gt;ImageResolution&lt;/b&gt;" style="html=1;whiteSpace=wrap;fillColor=#d5e8d4;strokeColor=#82b366;" parent="WIyWlLk6GJQsqaUBKTNV-1" vertex="1">
          <mxGeometry x="575" y="450" width="110" height="50" as="geometry" />
        </mxCell>
        <mxCell id="h5Efu_G0mSg4I1NGirqq-19" value="ImageDownloader" style="swimlane;fontStyle=1;align=center;verticalAlign=top;childLayout=stackLayout;horizontal=1;startSize=26;horizontalStack=0;resizeParent=1;resizeParentMax=0;resizeLast=0;collapsible=1;marginBottom=0;whiteSpace=wrap;html=1;fillColor=#d5e8d4;strokeColor=#82b366;" parent="WIyWlLk6GJQsqaUBKTNV-1" vertex="1">
          <mxGeometry x="-30" y="440" width="470" height="138" as="geometry" />
        </mxCell>
        <mxCell id="h5Efu_G0mSg4I1NGirqq-32" value="+ download(camId: int,&amp;nbsp;imageSize: PanomaxImageSize, imageTime: DateTime): bool" style="text;strokeColor=none;fillColor=none;align=left;verticalAlign=top;spacingLeft=4;spacingRight=4;overflow=hidden;rotatable=0;points=[[0,0.5],[1,0.5]];portConstraint=eastwest;whiteSpace=wrap;html=1;" parent="h5Efu_G0mSg4I1NGirqq-19" vertex="1">
          <mxGeometry y="26" width="470" height="26" as="geometry" />
        </mxCell>
        <mxCell id="9GvYxC-oIWgCcf4ip-T2-48" value="+ imageTiles(): Image[]" style="text;strokeColor=none;fillColor=none;align=left;verticalAlign=top;spacingLeft=4;spacingRight=4;overflow=hidden;rotatable=0;points=[[0,0.5],[1,0.5]];portConstraint=eastwest;whiteSpace=wrap;html=1;" parent="h5Efu_G0mSg4I1NGirqq-19" vertex="1">
          <mxGeometry y="52" width="470" height="26" as="geometry" />
        </mxCell>
        <mxCell id="n-TmkyY4FhtMB-e-_dIo-7" value="" style="line;strokeWidth=1;fillColor=none;align=left;verticalAlign=middle;spacingTop=-1;spacingLeft=3;spacingRight=3;rotatable=0;labelPosition=right;points=[];portConstraint=eastwest;strokeColor=inherit;" vertex="1" parent="h5Efu_G0mSg4I1NGirqq-19">
          <mxGeometry y="78" width="470" height="8" as="geometry" />
        </mxCell>
        <mxCell id="n-TmkyY4FhtMB-e-_dIo-8" value="- downloadProgress(Progress): void override" style="text;strokeColor=none;fillColor=none;align=left;verticalAlign=top;spacingLeft=4;spacingRight=4;overflow=hidden;rotatable=0;points=[[0,0.5],[1,0.5]];portConstraint=eastwest;whiteSpace=wrap;html=1;" vertex="1" parent="h5Efu_G0mSg4I1NGirqq-19">
          <mxGeometry y="86" width="470" height="26" as="geometry" />
        </mxCell>
        <mxCell id="n-TmkyY4FhtMB-e-_dIo-12" value="- downloadDone(Byte[]): DownloadState override" style="text;strokeColor=none;fillColor=none;align=left;verticalAlign=top;spacingLeft=4;spacingRight=4;overflow=hidden;rotatable=0;points=[[0,0.5],[1,0.5]];portConstraint=eastwest;whiteSpace=wrap;html=1;" vertex="1" parent="h5Efu_G0mSg4I1NGirqq-19">
          <mxGeometry y="112" width="470" height="26" as="geometry" />
        </mxCell>
        <mxCell id="h5Efu_G0mSg4I1NGirqq-23" value="ImageSize" style="swimlane;fontStyle=1;align=center;verticalAlign=top;childLayout=stackLayout;horizontal=1;startSize=26;horizontalStack=0;resizeParent=1;resizeParentMax=0;resizeLast=0;collapsible=1;marginBottom=0;whiteSpace=wrap;html=1;fillColor=#d5e8d4;strokeColor=#82b366;" parent="WIyWlLk6GJQsqaUBKTNV-1" vertex="1">
          <mxGeometry x="530" y="590" width="200" height="78" as="geometry" />
        </mxCell>
        <mxCell id="h5Efu_G0mSg4I1NGirqq-24" value="+ resolution: ImageResolution" style="text;strokeColor=none;fillColor=none;align=left;verticalAlign=top;spacingLeft=4;spacingRight=4;overflow=hidden;rotatable=0;points=[[0,0.5],[1,0.5]];portConstraint=eastwest;whiteSpace=wrap;html=1;" parent="h5Efu_G0mSg4I1NGirqq-23" vertex="1">
          <mxGeometry y="26" width="200" height="26" as="geometry" />
        </mxCell>
        <mxCell id="h5Efu_G0mSg4I1NGirqq-29" value="+ columns: int" style="text;strokeColor=none;fillColor=none;align=left;verticalAlign=top;spacingLeft=4;spacingRight=4;overflow=hidden;rotatable=0;points=[[0,0.5],[1,0.5]];portConstraint=eastwest;whiteSpace=wrap;html=1;" parent="h5Efu_G0mSg4I1NGirqq-23" vertex="1">
          <mxGeometry y="52" width="200" height="26" as="geometry" />
        </mxCell>
        <mxCell id="h5Efu_G0mSg4I1NGirqq-33" value="Use" style="endArrow=open;endSize=12;dashed=1;html=1;rounded=0;" parent="WIyWlLk6GJQsqaUBKTNV-1" source="h5Efu_G0mSg4I1NGirqq-19" target="h5Efu_G0mSg4I1NGirqq-23" edge="1">
          <mxGeometry width="160" relative="1" as="geometry">
            <mxPoint x="650" y="500" as="sourcePoint" />
            <mxPoint x="810" y="500" as="targetPoint" />
          </mxGeometry>
        </mxCell>
        <mxCell id="h5Efu_G0mSg4I1NGirqq-51" value="" style="endArrow=diamondThin;endFill=0;endSize=24;html=1;rounded=0;" parent="WIyWlLk6GJQsqaUBKTNV-1" source="h5Efu_G0mSg4I1NGirqq-12" target="h5Efu_G0mSg4I1NGirqq-23" edge="1">
          <mxGeometry width="160" relative="1" as="geometry">
            <mxPoint x="520" y="280" as="sourcePoint" />
            <mxPoint x="680" y="280" as="targetPoint" />
          </mxGeometry>
        </mxCell>
        <mxCell id="h5Efu_G0mSg4I1NGirqq-55" value="PanoramaView" style="swimlane;fontStyle=1;align=center;verticalAlign=top;childLayout=stackLayout;horizontal=1;startSize=26;horizontalStack=0;resizeParent=1;resizeParentMax=0;resizeLast=0;collapsible=1;marginBottom=0;whiteSpace=wrap;html=1;" parent="WIyWlLk6GJQsqaUBKTNV-1" vertex="1">
          <mxGeometry x="-827" y="-27" width="160" height="52" as="geometry" />
        </mxCell>
        <mxCell id="h5Efu_G0mSg4I1NGirqq-56" value="+ imageTiles: Image[]" style="text;strokeColor=none;fillColor=none;align=left;verticalAlign=top;spacingLeft=4;spacingRight=4;overflow=hidden;rotatable=0;points=[[0,0.5],[1,0.5]];portConstraint=eastwest;whiteSpace=wrap;html=1;" parent="h5Efu_G0mSg4I1NGirqq-55" vertex="1">
          <mxGeometry y="26" width="160" height="26" as="geometry" />
        </mxCell>
        <mxCell id="h5Efu_G0mSg4I1NGirqq-59" value="QQuickItem" style="swimlane;fontStyle=1;align=center;verticalAlign=top;childLayout=stackLayout;horizontal=1;startSize=26;horizontalStack=0;resizeParent=1;resizeParentMax=0;resizeLast=0;collapsible=1;marginBottom=0;whiteSpace=wrap;html=1;" parent="WIyWlLk6GJQsqaUBKTNV-1" vertex="1">
          <mxGeometry x="-827" y="-110" width="160" height="34" as="geometry" />
        </mxCell>
        <mxCell id="h5Efu_G0mSg4I1NGirqq-63" value="" style="endArrow=block;endSize=16;endFill=0;html=1;rounded=0;" parent="WIyWlLk6GJQsqaUBKTNV-1" source="h5Efu_G0mSg4I1NGirqq-55" target="h5Efu_G0mSg4I1NGirqq-59" edge="1">
          <mxGeometry x="-0.4694" y="-30" width="160" relative="1" as="geometry">
            <mxPoint x="-597" y="180" as="sourcePoint" />
            <mxPoint x="-437" y="180" as="targetPoint" />
            <mxPoint as="offset" />
          </mxGeometry>
        </mxCell>
        <mxCell id="9GvYxC-oIWgCcf4ip-T2-0" value="Settings" style="swimlane;fontStyle=1;align=center;verticalAlign=top;childLayout=stackLayout;horizontal=1;startSize=26;horizontalStack=0;resizeParent=1;resizeParentMax=0;resizeLast=0;collapsible=1;marginBottom=0;whiteSpace=wrap;html=1;" parent="WIyWlLk6GJQsqaUBKTNV-1" vertex="1">
          <mxGeometry x="-827" y="200" width="160" height="52" as="geometry" />
        </mxCell>
        <mxCell id="9GvYxC-oIWgCcf4ip-T2-1" value="+ backgroundCamId: int" style="text;strokeColor=none;fillColor=none;align=left;verticalAlign=top;spacingLeft=4;spacingRight=4;overflow=hidden;rotatable=0;points=[[0,0.5],[1,0.5]];portConstraint=eastwest;whiteSpace=wrap;html=1;" parent="9GvYxC-oIWgCcf4ip-T2-0" vertex="1">
          <mxGeometry y="26" width="160" height="26" as="geometry" />
        </mxCell>
        <mxCell id="9GvYxC-oIWgCcf4ip-T2-4" value="QSettings" style="swimlane;fontStyle=1;align=center;verticalAlign=top;childLayout=stackLayout;horizontal=1;startSize=26;horizontalStack=0;resizeParent=1;resizeParentMax=0;resizeLast=0;collapsible=1;marginBottom=0;whiteSpace=wrap;html=1;" parent="WIyWlLk6GJQsqaUBKTNV-1" vertex="1">
          <mxGeometry x="-827" y="100" width="160" height="34" as="geometry" />
        </mxCell>
        <mxCell id="9GvYxC-oIWgCcf4ip-T2-5" value="" style="endArrow=block;endSize=16;endFill=0;html=1;rounded=0;" parent="WIyWlLk6GJQsqaUBKTNV-1" source="9GvYxC-oIWgCcf4ip-T2-0" target="9GvYxC-oIWgCcf4ip-T2-4" edge="1">
          <mxGeometry width="160" relative="1" as="geometry">
            <mxPoint x="3" y="150" as="sourcePoint" />
            <mxPoint x="163" y="150" as="targetPoint" />
          </mxGeometry>
        </mxCell>
        <mxCell id="9GvYxC-oIWgCcf4ip-T2-6" value="DayInfo" style="swimlane;fontStyle=1;align=center;verticalAlign=top;childLayout=stackLayout;horizontal=1;startSize=26;horizontalStack=0;resizeParent=1;resizeParentMax=0;resizeLast=0;collapsible=1;marginBottom=0;whiteSpace=wrap;html=1;fillColor=#d5e8d4;strokeColor=#82b366;" parent="WIyWlLk6GJQsqaUBKTNV-1" vertex="1">
          <mxGeometry x="160" y="770" width="350" height="104" as="geometry" />
        </mxCell>
        <mxCell id="9GvYxC-oIWgCcf4ip-T2-7" value="+ date: Day" style="text;strokeColor=none;fillColor=none;align=left;verticalAlign=top;spacingLeft=4;spacingRight=4;overflow=hidden;rotatable=0;points=[[0,0.5],[1,0.5]];portConstraint=eastwest;whiteSpace=wrap;html=1;" parent="9GvYxC-oIWgCcf4ip-T2-6" vertex="1">
          <mxGeometry y="26" width="350" height="26" as="geometry" />
        </mxCell>
        <mxCell id="9GvYxC-oIWgCcf4ip-T2-10" value="+ imageSizes: ImageSize[]" style="text;strokeColor=none;fillColor=none;align=left;verticalAlign=top;spacingLeft=4;spacingRight=4;overflow=hidden;rotatable=0;points=[[0,0.5],[1,0.5]];portConstraint=eastwest;whiteSpace=wrap;html=1;" parent="9GvYxC-oIWgCcf4ip-T2-6" vertex="1">
          <mxGeometry y="52" width="350" height="26" as="geometry" />
        </mxCell>
        <mxCell id="9GvYxC-oIWgCcf4ip-T2-33" value="+ imageTimes: Time[]" style="text;strokeColor=none;fillColor=none;align=left;verticalAlign=top;spacingLeft=4;spacingRight=4;overflow=hidden;rotatable=0;points=[[0,0.5],[1,0.5]];portConstraint=eastwest;whiteSpace=wrap;html=1;" parent="9GvYxC-oIWgCcf4ip-T2-6" vertex="1">
          <mxGeometry y="78" width="350" height="26" as="geometry" />
        </mxCell>
        <mxCell id="9GvYxC-oIWgCcf4ip-T2-11" value="" style="endArrow=diamondThin;endFill=0;endSize=24;html=1;rounded=0;" parent="WIyWlLk6GJQsqaUBKTNV-1" source="h5Efu_G0mSg4I1NGirqq-23" target="9GvYxC-oIWgCcf4ip-T2-6" edge="1">
          <mxGeometry width="160" relative="1" as="geometry">
            <mxPoint x="300" y="360" as="sourcePoint" />
            <mxPoint x="460" y="360" as="targetPoint" />
          </mxGeometry>
        </mxCell>
        <mxCell id="9GvYxC-oIWgCcf4ip-T2-12" value="DayInfoDownloader" style="swimlane;fontStyle=1;align=center;verticalAlign=top;childLayout=stackLayout;horizontal=1;startSize=26;horizontalStack=0;resizeParent=1;resizeParentMax=0;resizeLast=0;collapsible=1;marginBottom=0;whiteSpace=wrap;html=1;fillColor=#d5e8d4;strokeColor=#82b366;" parent="WIyWlLk6GJQsqaUBKTNV-1" vertex="1">
          <mxGeometry x="-380" y="507" width="280" height="112" as="geometry" />
        </mxCell>
        <mxCell id="9GvYxC-oIWgCcf4ip-T2-13" value="+ download(camId: int, date: Day): bool" style="text;strokeColor=none;fillColor=none;align=left;verticalAlign=top;spacingLeft=4;spacingRight=4;overflow=hidden;rotatable=0;points=[[0,0.5],[1,0.5]];portConstraint=eastwest;whiteSpace=wrap;html=1;" parent="9GvYxC-oIWgCcf4ip-T2-12" vertex="1">
          <mxGeometry y="26" width="280" height="26" as="geometry" />
        </mxCell>
        <mxCell id="9GvYxC-oIWgCcf4ip-T2-32" value="+ dayInfo(): DayInfo" style="text;strokeColor=none;fillColor=none;align=left;verticalAlign=top;spacingLeft=4;spacingRight=4;overflow=hidden;rotatable=0;points=[[0,0.5],[1,0.5]];portConstraint=eastwest;whiteSpace=wrap;html=1;" parent="9GvYxC-oIWgCcf4ip-T2-12" vertex="1">
          <mxGeometry y="52" width="280" height="26" as="geometry" />
        </mxCell>
        <mxCell id="n-TmkyY4FhtMB-e-_dIo-9" value="" style="line;strokeWidth=1;fillColor=none;align=left;verticalAlign=middle;spacingTop=-1;spacingLeft=3;spacingRight=3;rotatable=0;labelPosition=right;points=[];portConstraint=eastwest;strokeColor=inherit;" vertex="1" parent="9GvYxC-oIWgCcf4ip-T2-12">
          <mxGeometry y="78" width="280" height="8" as="geometry" />
        </mxCell>
        <mxCell id="n-TmkyY4FhtMB-e-_dIo-11" value="- downloadDone(Byte[]): DownloadState override" style="text;strokeColor=none;fillColor=none;align=left;verticalAlign=top;spacingLeft=4;spacingRight=4;overflow=hidden;rotatable=0;points=[[0,0.5],[1,0.5]];portConstraint=eastwest;whiteSpace=wrap;html=1;" vertex="1" parent="9GvYxC-oIWgCcf4ip-T2-12">
          <mxGeometry y="86" width="280" height="26" as="geometry" />
        </mxCell>
        <mxCell id="9GvYxC-oIWgCcf4ip-T2-16" value="Downloader" style="swimlane;fontStyle=1;align=center;verticalAlign=top;childLayout=stackLayout;horizontal=1;startSize=26;horizontalStack=0;resizeParent=1;resizeParentMax=0;resizeLast=0;collapsible=1;marginBottom=0;whiteSpace=wrap;html=1;fillColor=#dae8fc;strokeColor=#6c8ebf;" parent="WIyWlLk6GJQsqaUBKTNV-1" vertex="1">
          <mxGeometry x="-380" y="-110" width="280" height="396" as="geometry" />
        </mxCell>
        <mxCell id="9GvYxC-oIWgCcf4ip-T2-25" value="+ retries: int" style="text;strokeColor=none;fillColor=none;align=left;verticalAlign=top;spacingLeft=4;spacingRight=4;overflow=hidden;rotatable=0;points=[[0,0.5],[1,0.5]];portConstraint=eastwest;whiteSpace=wrap;html=1;" parent="9GvYxC-oIWgCcf4ip-T2-16" vertex="1">
          <mxGeometry y="26" width="280" height="26" as="geometry" />
        </mxCell>
        <mxCell id="9GvYxC-oIWgCcf4ip-T2-20" value="" style="line;strokeWidth=1;fillColor=none;align=left;verticalAlign=middle;spacingTop=-1;spacingLeft=3;spacingRight=3;rotatable=0;labelPosition=right;points=[];portConstraint=eastwest;strokeColor=inherit;" parent="9GvYxC-oIWgCcf4ip-T2-16" vertex="1">
          <mxGeometry y="52" width="280" height="8" as="geometry" />
        </mxCell>
        <mxCell id="h5Efu_G0mSg4I1NGirqq-37" value="+ abort(): void" style="text;strokeColor=none;fillColor=none;align=left;verticalAlign=top;spacingLeft=4;spacingRight=4;overflow=hidden;rotatable=0;points=[[0,0.5],[1,0.5]];portConstraint=eastwest;whiteSpace=wrap;html=1;" parent="9GvYxC-oIWgCcf4ip-T2-16" vertex="1">
          <mxGeometry y="60" width="280" height="26" as="geometry" />
        </mxCell>
        <mxCell id="9GvYxC-oIWgCcf4ip-T2-31" value="+ progress(): int" style="text;strokeColor=none;fillColor=none;align=left;verticalAlign=top;spacingLeft=4;spacingRight=4;overflow=hidden;rotatable=0;points=[[0,0.5],[1,0.5]];portConstraint=eastwest;whiteSpace=wrap;html=1;" parent="9GvYxC-oIWgCcf4ip-T2-16" vertex="1">
          <mxGeometry y="86" width="280" height="26" as="geometry" />
        </mxCell>
        <mxCell id="h5Efu_G0mSg4I1NGirqq-36" value="+ downloading(): bool" style="text;strokeColor=none;fillColor=none;align=left;verticalAlign=top;spacingLeft=4;spacingRight=4;overflow=hidden;rotatable=0;points=[[0,0.5],[1,0.5]];portConstraint=eastwest;whiteSpace=wrap;html=1;" parent="9GvYxC-oIWgCcf4ip-T2-16" vertex="1">
          <mxGeometry y="112" width="280" height="26" as="geometry" />
        </mxCell>
        <mxCell id="9GvYxC-oIWgCcf4ip-T2-24" value="" style="line;strokeWidth=1;fillColor=none;align=left;verticalAlign=middle;spacingTop=-1;spacingLeft=3;spacingRight=3;rotatable=0;labelPosition=right;points=[];portConstraint=eastwest;strokeColor=inherit;" parent="9GvYxC-oIWgCcf4ip-T2-16" vertex="1">
          <mxGeometry y="138" width="280" height="8" as="geometry" />
        </mxCell>
        <mxCell id="h5Efu_G0mSg4I1NGirqq-41" value="signals:" style="text;strokeColor=none;fillColor=none;align=left;verticalAlign=top;spacingLeft=4;spacingRight=4;overflow=hidden;rotatable=0;points=[[0,0.5],[1,0.5]];portConstraint=eastwest;whiteSpace=wrap;html=1;" parent="9GvYxC-oIWgCcf4ip-T2-16" vertex="1">
          <mxGeometry y="146" width="280" height="26" as="geometry" />
        </mxCell>
        <mxCell id="h5Efu_G0mSg4I1NGirqq-42" value="+ failed()" style="text;strokeColor=none;fillColor=none;align=left;verticalAlign=top;spacingLeft=4;spacingRight=4;overflow=hidden;rotatable=0;points=[[0,0.5],[1,0.5]];portConstraint=eastwest;whiteSpace=wrap;html=1;" parent="9GvYxC-oIWgCcf4ip-T2-16" vertex="1">
          <mxGeometry y="172" width="280" height="26" as="geometry" />
        </mxCell>
        <mxCell id="h5Efu_G0mSg4I1NGirqq-39" value="+ finished()" style="text;strokeColor=none;fillColor=none;align=left;verticalAlign=top;spacingLeft=4;spacingRight=4;overflow=hidden;rotatable=0;points=[[0,0.5],[1,0.5]];portConstraint=eastwest;whiteSpace=wrap;html=1;" parent="9GvYxC-oIWgCcf4ip-T2-16" vertex="1">
          <mxGeometry y="198" width="280" height="26" as="geometry" />
        </mxCell>
        <mxCell id="9GvYxC-oIWgCcf4ip-T2-22" value="" style="line;strokeWidth=1;fillColor=none;align=left;verticalAlign=middle;spacingTop=-1;spacingLeft=3;spacingRight=3;rotatable=0;labelPosition=right;points=[];portConstraint=eastwest;strokeColor=inherit;" parent="9GvYxC-oIWgCcf4ip-T2-16" vertex="1">
          <mxGeometry y="224" width="280" height="8" as="geometry" />
        </mxCell>
        <mxCell id="9GvYxC-oIWgCcf4ip-T2-27" value="# virtual downloadDone(Byte[]): DownloadState= 0" style="text;strokeColor=none;fillColor=none;align=left;verticalAlign=top;spacingLeft=4;spacingRight=4;overflow=hidden;rotatable=0;points=[[0,0.5],[1,0.5]];portConstraint=eastwest;whiteSpace=wrap;html=1;" parent="9GvYxC-oIWgCcf4ip-T2-16" vertex="1">
          <mxGeometry y="232" width="280" height="26" as="geometry" />
        </mxCell>
        <mxCell id="n-TmkyY4FhtMB-e-_dIo-6" value="# virtual downloadProgress(Progress): void" style="text;strokeColor=none;fillColor=none;align=left;verticalAlign=top;spacingLeft=4;spacingRight=4;overflow=hidden;rotatable=0;points=[[0,0.5],[1,0.5]];portConstraint=eastwest;whiteSpace=wrap;html=1;" vertex="1" parent="9GvYxC-oIWgCcf4ip-T2-16">
          <mxGeometry y="258" width="280" height="26" as="geometry" />
        </mxCell>
        <mxCell id="9GvYxC-oIWgCcf4ip-T2-23" value="# startDownload(Url): void" style="text;strokeColor=none;fillColor=none;align=left;verticalAlign=top;spacingLeft=4;spacingRight=4;overflow=hidden;rotatable=0;points=[[0,0.5],[1,0.5]];portConstraint=eastwest;whiteSpace=wrap;html=1;" parent="9GvYxC-oIWgCcf4ip-T2-16" vertex="1">
          <mxGeometry y="284" width="280" height="26" as="geometry" />
        </mxCell>
        <mxCell id="9GvYxC-oIWgCcf4ip-T2-30" value="# setProgress(int): void" style="text;strokeColor=none;fillColor=none;align=left;verticalAlign=top;spacingLeft=4;spacingRight=4;overflow=hidden;rotatable=0;points=[[0,0.5],[1,0.5]];portConstraint=eastwest;whiteSpace=wrap;html=1;" parent="9GvYxC-oIWgCcf4ip-T2-16" vertex="1">
          <mxGeometry y="310" width="280" height="26" as="geometry" />
        </mxCell>
        <mxCell id="9GvYxC-oIWgCcf4ip-T2-21" value="" style="line;strokeWidth=1;fillColor=none;align=left;verticalAlign=middle;spacingTop=-1;spacingLeft=3;spacingRight=3;rotatable=0;labelPosition=right;points=[];portConstraint=eastwest;strokeColor=inherit;" parent="9GvYxC-oIWgCcf4ip-T2-16" vertex="1">
          <mxGeometry y="336" width="280" height="8" as="geometry" />
        </mxCell>
        <mxCell id="h5Efu_G0mSg4I1NGirqq-20" value="- currentDownload: Download" style="text;strokeColor=none;fillColor=none;align=left;verticalAlign=top;spacingLeft=4;spacingRight=4;overflow=hidden;rotatable=0;points=[[0,0.5],[1,0.5]];portConstraint=eastwest;whiteSpace=wrap;html=1;" parent="9GvYxC-oIWgCcf4ip-T2-16" vertex="1">
          <mxGeometry y="344" width="280" height="26" as="geometry" />
        </mxCell>
        <mxCell id="h5Efu_G0mSg4I1NGirqq-35" value="- progress: int" style="text;strokeColor=none;fillColor=none;align=left;verticalAlign=top;spacingLeft=4;spacingRight=4;overflow=hidden;rotatable=0;points=[[0,0.5],[1,0.5]];portConstraint=eastwest;whiteSpace=wrap;html=1;" parent="9GvYxC-oIWgCcf4ip-T2-16" vertex="1">
          <mxGeometry y="370" width="280" height="26" as="geometry" />
        </mxCell>
        <mxCell id="9GvYxC-oIWgCcf4ip-T2-26" value="" style="endArrow=block;endSize=16;endFill=0;html=1;rounded=0;" parent="WIyWlLk6GJQsqaUBKTNV-1" source="h5Efu_G0mSg4I1NGirqq-19" target="9GvYxC-oIWgCcf4ip-T2-16" edge="1">
          <mxGeometry width="160" relative="1" as="geometry">
            <mxPoint x="-540" y="560" as="sourcePoint" />
            <mxPoint x="-540" y="494" as="targetPoint" />
          </mxGeometry>
        </mxCell>
        <mxCell id="9GvYxC-oIWgCcf4ip-T2-28" value="" style="endArrow=block;endSize=16;endFill=0;html=1;rounded=0;" parent="WIyWlLk6GJQsqaUBKTNV-1" source="9GvYxC-oIWgCcf4ip-T2-12" target="9GvYxC-oIWgCcf4ip-T2-16" edge="1">
          <mxGeometry width="160" relative="1" as="geometry">
            <mxPoint x="245" y="458" as="sourcePoint" />
            <mxPoint x="60" y="298" as="targetPoint" />
          </mxGeometry>
        </mxCell>
        <mxCell id="9GvYxC-oIWgCcf4ip-T2-44" value="RecentImage" style="swimlane;fontStyle=1;align=center;verticalAlign=top;childLayout=stackLayout;horizontal=1;startSize=26;horizontalStack=0;resizeParent=1;resizeParentMax=0;resizeLast=0;collapsible=1;marginBottom=0;whiteSpace=wrap;html=1;fillColor=#d5e8d4;strokeColor=#82b366;" parent="WIyWlLk6GJQsqaUBKTNV-1" vertex="1">
          <mxGeometry x="-200" y="720" width="270" height="198" as="geometry" />
        </mxCell>
        <mxCell id="9GvYxC-oIWgCcf4ip-T2-45" value="+ camId: int" style="text;strokeColor=none;fillColor=none;align=left;verticalAlign=top;spacingLeft=4;spacingRight=4;overflow=hidden;rotatable=0;points=[[0,0.5],[1,0.5]];portConstraint=eastwest;whiteSpace=wrap;html=1;" parent="9GvYxC-oIWgCcf4ip-T2-44" vertex="1">
          <mxGeometry y="26" width="270" height="26" as="geometry" />
        </mxCell>
        <mxCell id="9GvYxC-oIWgCcf4ip-T2-55" value="+ imageResolutions: ImageResolution[]" style="text;strokeColor=none;fillColor=none;align=left;verticalAlign=top;spacingLeft=4;spacingRight=4;overflow=hidden;rotatable=0;points=[[0,0.5],[1,0.5]];portConstraint=eastwest;whiteSpace=wrap;html=1;" parent="9GvYxC-oIWgCcf4ip-T2-44" vertex="1">
          <mxGeometry y="52" width="270" height="26" as="geometry" />
        </mxCell>
        <mxCell id="9GvYxC-oIWgCcf4ip-T2-46" value="" style="line;strokeWidth=1;fillColor=none;align=left;verticalAlign=middle;spacingTop=-1;spacingLeft=3;spacingRight=3;rotatable=0;labelPosition=right;points=[];portConstraint=eastwest;strokeColor=inherit;" parent="9GvYxC-oIWgCcf4ip-T2-44" vertex="1">
          <mxGeometry y="78" width="270" height="8" as="geometry" />
        </mxCell>
        <mxCell id="9GvYxC-oIWgCcf4ip-T2-47" value="+ imageTiles(): Image[]" style="text;strokeColor=none;fillColor=none;align=left;verticalAlign=top;spacingLeft=4;spacingRight=4;overflow=hidden;rotatable=0;points=[[0,0.5],[1,0.5]];portConstraint=eastwest;whiteSpace=wrap;html=1;" parent="9GvYxC-oIWgCcf4ip-T2-44" vertex="1">
          <mxGeometry y="86" width="270" height="26" as="geometry" />
        </mxCell>
        <mxCell id="n-TmkyY4FhtMB-e-_dIo-13" value="+ progress(): int" style="text;strokeColor=none;fillColor=none;align=left;verticalAlign=top;spacingLeft=4;spacingRight=4;overflow=hidden;rotatable=0;points=[[0,0.5],[1,0.5]];portConstraint=eastwest;whiteSpace=wrap;html=1;" vertex="1" parent="9GvYxC-oIWgCcf4ip-T2-44">
          <mxGeometry y="112" width="270" height="26" as="geometry" />
        </mxCell>
        <mxCell id="9GvYxC-oIWgCcf4ip-T2-49" value="" style="line;strokeWidth=1;fillColor=none;align=left;verticalAlign=middle;spacingTop=-1;spacingLeft=3;spacingRight=3;rotatable=0;labelPosition=right;points=[];portConstraint=eastwest;strokeColor=inherit;" parent="9GvYxC-oIWgCcf4ip-T2-44" vertex="1">
          <mxGeometry y="138" width="270" height="8" as="geometry" />
        </mxCell>
        <mxCell id="9GvYxC-oIWgCcf4ip-T2-50" value="- imageDownloader: ImageDownloader" style="text;strokeColor=none;fillColor=none;align=left;verticalAlign=top;spacingLeft=4;spacingRight=4;overflow=hidden;rotatable=0;points=[[0,0.5],[1,0.5]];portConstraint=eastwest;whiteSpace=wrap;html=1;" parent="9GvYxC-oIWgCcf4ip-T2-44" vertex="1">
          <mxGeometry y="146" width="270" height="26" as="geometry" />
        </mxCell>
        <mxCell id="9GvYxC-oIWgCcf4ip-T2-51" value="- dayInfoDownloader: DayInfoDownloader" style="text;strokeColor=none;fillColor=none;align=left;verticalAlign=top;spacingLeft=4;spacingRight=4;overflow=hidden;rotatable=0;points=[[0,0.5],[1,0.5]];portConstraint=eastwest;whiteSpace=wrap;html=1;" parent="9GvYxC-oIWgCcf4ip-T2-44" vertex="1">
          <mxGeometry y="172" width="270" height="26" as="geometry" />
        </mxCell>
        <mxCell id="9GvYxC-oIWgCcf4ip-T2-52" value="" style="endArrow=diamondThin;endFill=0;endSize=24;html=1;rounded=0;" parent="WIyWlLk6GJQsqaUBKTNV-1" source="h5Efu_G0mSg4I1NGirqq-19" target="9GvYxC-oIWgCcf4ip-T2-44" edge="1">
          <mxGeometry width="160" relative="1" as="geometry">
            <mxPoint x="737" y="494" as="sourcePoint" />
            <mxPoint x="735" y="660" as="targetPoint" />
          </mxGeometry>
        </mxCell>
        <mxCell id="9GvYxC-oIWgCcf4ip-T2-53" value="" style="endArrow=diamondThin;endFill=0;endSize=24;html=1;rounded=0;" parent="WIyWlLk6GJQsqaUBKTNV-1" source="9GvYxC-oIWgCcf4ip-T2-12" target="9GvYxC-oIWgCcf4ip-T2-44" edge="1">
          <mxGeometry width="160" relative="1" as="geometry">
            <mxPoint x="747" y="504" as="sourcePoint" />
            <mxPoint x="745" y="670" as="targetPoint" />
          </mxGeometry>
        </mxCell>
        <mxCell id="9GvYxC-oIWgCcf4ip-T2-54" value="" style="endArrow=diamondThin;endFill=0;endSize=24;html=1;rounded=0;" parent="WIyWlLk6GJQsqaUBKTNV-1" source="9GvYxC-oIWgCcf4ip-T2-6" target="9GvYxC-oIWgCcf4ip-T2-12" edge="1">
          <mxGeometry width="160" relative="1" as="geometry">
            <mxPoint x="-161" y="517" as="sourcePoint" />
            <mxPoint x="60" y="570" as="targetPoint" />
          </mxGeometry>
        </mxCell>
        <mxCell id="n-TmkyY4FhtMB-e-_dIo-1" value="Use" style="endArrow=open;endSize=12;dashed=1;html=1;rounded=0;" edge="1" parent="WIyWlLk6GJQsqaUBKTNV-1" source="9GvYxC-oIWgCcf4ip-T2-16" target="n-TmkyY4FhtMB-e-_dIo-2">
          <mxGeometry width="160" relative="1" as="geometry">
            <mxPoint x="364" y="595" as="sourcePoint" />
            <mxPoint x="-20" y="75" as="targetPoint" />
          </mxGeometry>
        </mxCell>
        <mxCell id="n-TmkyY4FhtMB-e-_dIo-2" value="«enum»&lt;br&gt;DownloadState" style="swimlane;fontStyle=0;childLayout=stackLayout;horizontal=1;startSize=40;fillColor=#dae8fc;horizontalStack=0;resizeParent=1;resizeParentMax=0;resizeLast=0;collapsible=1;marginBottom=0;whiteSpace=wrap;html=1;strokeColor=#6c8ebf;" vertex="1" parent="WIyWlLk6GJQsqaUBKTNV-1">
          <mxGeometry x="10" y="29" width="140" height="118" as="geometry" />
        </mxCell>
        <mxCell id="n-TmkyY4FhtMB-e-_dIo-3" value="Continue" style="text;strokeColor=none;fillColor=none;align=left;verticalAlign=top;spacingLeft=4;spacingRight=4;overflow=hidden;rotatable=0;points=[[0,0.5],[1,0.5]];portConstraint=eastwest;whiteSpace=wrap;html=1;" vertex="1" parent="n-TmkyY4FhtMB-e-_dIo-2">
          <mxGeometry y="40" width="140" height="26" as="geometry" />
        </mxCell>
        <mxCell id="n-TmkyY4FhtMB-e-_dIo-4" value="Finished" style="text;strokeColor=none;fillColor=none;align=left;verticalAlign=top;spacingLeft=4;spacingRight=4;overflow=hidden;rotatable=0;points=[[0,0.5],[1,0.5]];portConstraint=eastwest;whiteSpace=wrap;html=1;" vertex="1" parent="n-TmkyY4FhtMB-e-_dIo-2">
          <mxGeometry y="66" width="140" height="26" as="geometry" />
        </mxCell>
        <mxCell id="n-TmkyY4FhtMB-e-_dIo-5" value="Failed" style="text;strokeColor=none;fillColor=none;align=left;verticalAlign=top;spacingLeft=4;spacingRight=4;overflow=hidden;rotatable=0;points=[[0,0.5],[1,0.5]];portConstraint=eastwest;whiteSpace=wrap;html=1;" vertex="1" parent="n-TmkyY4FhtMB-e-_dIo-2">
          <mxGeometry y="92" width="140" height="26" as="geometry" />
        </mxCell>
      </root>
    </mxGraphModel>
  </diagram>
</mxfile>
